<mxfile host="65bd71144e">
    <diagram name="TxStream Architecture" id="txstream-architecture">
        <mxGraphModel dx="891" dy="609" grid="1" gridSize="10" guides="1" tooltips="1" connect="1" arrows="1" fold="1" page="1" pageScale="1" pageWidth="1169" pageHeight="827" math="0" shadow="0">
            <root>
                <mxCell id="0"/>
                <mxCell id="1" parent="0"/>
                <mxCell id="40" value="" style="whiteSpace=wrap;html=1;rounded=1;fontStyle=1;" vertex="1" parent="1">
                    <mxGeometry x="585" y="710" width="205" height="290" as="geometry"/>
                </mxCell>
                <mxCell id="client" value="HTTP Client" style="rounded=1;whiteSpace=wrap;html=1;fillColor=#dae8fc;strokeColor=#6c8ebf;" parent="1" vertex="1">
                    <mxGeometry x="40" y="40" width="120" height="60" as="geometry"/>
                </mxCell>
                <mxCell id="api" value="API Gateway&#xa;(Gorilla Mux)" style="rounded=1;whiteSpace=wrap;html=1;fillColor=#fff2cc;strokeColor=#d6b656;" parent="1" vertex="1">
                    <mxGeometry x="240" y="40" width="120" height="60" as="geometry"/>
                </mxCell>
                <mxCell id="app" value="Application Layer&lt;br&gt;(Use cases)" style="rounded=1;whiteSpace=wrap;html=1;fillColor=#d5e8d4;strokeColor=#82b366;" parent="1" vertex="1">
                    <mxGeometry x="440" y="40" width="120" height="60" as="geometry"/>
                </mxCell>
                <mxCell id="domain" value="Domain Layer&lt;br&gt;(Entities)" style="rounded=1;whiteSpace=wrap;html=1;fillColor=#e1d5e7;strokeColor=#9673a6;" parent="1" vertex="1">
                    <mxGeometry x="640" y="40" width="120" height="60" as="geometry"/>
                </mxCell>
                <mxCell id="infra" value="Infrastructure Layer" style="rounded=1;whiteSpace=wrap;html=1;fillColor=#f8cecc;strokeColor=#b85450;" parent="1" vertex="1">
                    <mxGeometry x="440" y="160" width="120" height="60" as="geometry"/>
                </mxCell>
                <mxCell id="postgres" value="PostgreSQL&#xa;(Outbox Table)" style="shape=cylinder3;whiteSpace=wrap;html=1;boundedLbl=1;backgroundOutline=1;size=15;fillColor=#dae8fc;strokeColor=#6c8ebf;" parent="1" vertex="1">
                    <mxGeometry x="240" y="160" width="120" height="80" as="geometry"/>
                </mxCell>
                <mxCell id="outbox-table" value="Outbox Table&lt;br&gt;&lt;br&gt;• id (PK)&lt;br&gt;• event_type&lt;br&gt;• payload&lt;br&gt;• status&lt;br&gt;• retry_count&lt;br&gt;• created_at&lt;br&gt;• updated_at" style="rounded=1;whiteSpace=wrap;html=1;fillColor=#e6f3ff;strokeColor=#4d94ff;fontSize=11;fontStyle=1;" vertex="1" parent="1">
                    <mxGeometry x="220" y="280" width="140" height="120" as="geometry"/>
                </mxCell>
                <mxCell id="event-states" value="Event States&lt;br&gt;&lt;br&gt;PENDING&lt;br&gt;PUBLISHED&lt;br&gt;FAILED&lt;br&gt;RETRY" style="rounded=1;whiteSpace=wrap;html=1;fillColor=#f0f0f0;strokeColor=#666666;fontSize=10;" vertex="1" parent="1">
                    <mxGeometry x="100" y="300" width="100" height="100" as="geometry"/>
                </mxCell>
                <mxCell id="acid-note" value="ACID Transaction&lt;br&gt;Event stored atomically&lt;br&gt;with business data" style="shape=note;strokeWidth=2;fontSize=9;size=20;whiteSpace=wrap;html=1;fillColor=#fff2cc;strokeColor=#d6b656;" vertex="1" parent="1">
                    <mxGeometry x="90" y="230" width="120" height="60" as="geometry"/>
                </mxCell>
                <mxCell id="kafka" value="Apache Kafka&#xa;(Event Stream)" style="shape=cylinder3;whiteSpace=wrap;html=1;boundedLbl=1;backgroundOutline=1;size=15;fillColor=#ffe6cc;strokeColor=#d79b00;" parent="1" vertex="1">
                    <mxGeometry x="640" y="160" width="120" height="80" as="geometry"/>
                </mxCell>
                <mxCell id="5" value="" style="edgeStyle=none;html=1;" edge="1" parent="1" source="outbox" target="4">
                    <mxGeometry relative="1" as="geometry"/>
                </mxCell>
                <mxCell id="outbox" value="Outbox Worker" style="rounded=1;whiteSpace=wrap;html=1;fillColor=#f5f5f5;strokeColor=#666666;fontStyle=1" parent="1" vertex="1">
                    <mxGeometry x="440" y="280" width="120" height="60" as="geometry"/>
                </mxCell>
                <mxCell id="consumers" value="Event Consumers&lt;br&gt;(Microservices)" style="rounded=1;whiteSpace=wrap;html=1;fillColor=#e1d5e7;strokeColor=#9673a6;" parent="1" vertex="1">
                    <mxGeometry x="640" y="280" width="120" height="60" as="geometry"/>
                </mxCell>
                <mxCell id="conn1" value="" style="endArrow=classic;html=1;rounded=0;exitX=1;exitY=0.5;exitDx=0;exitDy=0;entryX=0;entryY=0.5;entryDx=0;entryDy=0;" parent="1" source="client" target="api" edge="1">
                    <mxGeometry width="50" height="50" relative="1" as="geometry">
                        <mxPoint x="200" y="70" as="sourcePoint"/>
                        <mxPoint x="250" y="20" as="targetPoint"/>
                    </mxGeometry>
                </mxCell>
                <mxCell id="conn2" value="" style="endArrow=classic;html=1;rounded=0;exitX=1;exitY=0.5;exitDx=0;exitDy=0;entryX=0;entryY=0.5;entryDx=0;entryDy=0;" parent="1" source="api" target="app" edge="1">
                    <mxGeometry width="50" height="50" relative="1" as="geometry">
                        <mxPoint x="380" y="70" as="sourcePoint"/>
                        <mxPoint x="430" y="20" as="targetPoint"/>
                    </mxGeometry>
                </mxCell>
                <mxCell id="conn3" value="" style="endArrow=classic;html=1;rounded=0;exitX=1;exitY=0.5;exitDx=0;exitDy=0;entryX=0;entryY=0.5;entryDx=0;entryDy=0;" parent="1" source="app" target="domain" edge="1">
                    <mxGeometry width="50" height="50" relative="1" as="geometry">
                        <mxPoint x="580" y="70" as="sourcePoint"/>
                        <mxPoint x="630" y="20" as="targetPoint"/>
                    </mxGeometry>
                </mxCell>
                <mxCell id="conn4" value="" style="endArrow=classic;html=1;rounded=0;exitX=0.5;exitY=1;exitDx=0;exitDy=0;entryX=0.5;entryY=0;entryDx=0;entryDy=0;" parent="1" source="app" target="infra" edge="1">
                    <mxGeometry width="50" height="50" relative="1" as="geometry">
                        <mxPoint x="500" y="110" as="sourcePoint"/>
                        <mxPoint x="500" y="150" as="targetPoint"/>
                    </mxGeometry>
                </mxCell>
                <mxCell id="conn5" value="" style="endArrow=classic;html=1;rounded=0;exitX=0;exitY=0.5;exitDx=0;exitDy=0;entryX=1;entryY=0.5;entryDx=0;entryDy=0;" parent="1" source="infra" target="postgres" edge="1">
                    <mxGeometry width="50" height="50" relative="1" as="geometry">
                        <mxPoint x="430" y="190" as="sourcePoint"/>
                        <mxPoint x="360" y="200" as="targetPoint"/>
                    </mxGeometry>
                </mxCell>
                <mxCell id="conn6" value="" style="endArrow=classic;html=1;rounded=0;exitX=1;exitY=0.5;exitDx=0;exitDy=0;entryX=0;entryY=0.5;entryDx=0;entryDy=0;" parent="1" source="infra" target="kafka" edge="1">
                    <mxGeometry width="50" height="50" relative="1" as="geometry">
                        <mxPoint x="570" y="190" as="sourcePoint"/>
                        <mxPoint x="640" y="200" as="targetPoint"/>
                    </mxGeometry>
                </mxCell>
                <mxCell id="conn7" value="" style="endArrow=classic;html=1;rounded=0;exitX=0.5;exitY=1;exitDx=0;exitDy=0;entryX=0.5;entryY=0;entryDx=0;entryDy=0;" parent="1" source="infra" target="outbox" edge="1">
                    <mxGeometry width="50" height="50" relative="1" as="geometry">
                        <mxPoint x="500" y="230" as="sourcePoint"/>
                        <mxPoint x="500" y="270" as="targetPoint"/>
                    </mxGeometry>
                </mxCell>
                <mxCell id="conn8" value="" style="endArrow=classic;html=1;rounded=0;exitX=1;exitY=0.5;exitDx=0;exitDy=0;entryX=0;entryY=0.5;entryDx=0;entryDy=0;" parent="1" source="outbox" target="consumers" edge="1">
                    <mxGeometry width="50" height="50" relative="1" as="geometry">
                        <mxPoint x="570" y="310" as="sourcePoint"/>
                        <mxPoint x="640" y="310" as="targetPoint"/>
                    </mxGeometry>
                </mxCell>
                <mxCell id="conn-outbox-table" value="" style="endArrow=classic;html=1;rounded=0;exitX=1;exitY=0.5;exitDx=0;exitDy=0;entryX=0;entryY=0.5;entryDx=0;entryDy=0;" edge="1" parent="1" source="outbox-table" target="outbox">
                    <mxGeometry width="50" height="50" relative="1" as="geometry">
                        <mxPoint x="190" y="340" as="sourcePoint"/>
                        <mxPoint x="440" y="310" as="targetPoint"/>
                    </mxGeometry>
                </mxCell>
                <mxCell id="conn-postgres-outbox" value="" style="endArrow=classic;html=1;rounded=0;exitX=0.5;exitY=1;exitDx=0;exitDy=0;entryX=0.5;entryY=0;entryDx=0;entryDy=0;" edge="1" parent="1" source="postgres" target="outbox-table">
                    <mxGeometry width="50" height="50" relative="1" as="geometry">
                        <mxPoint x="300" y="250" as="sourcePoint"/>
                        <mxPoint x="110" y="270" as="targetPoint"/>
                    </mxGeometry>
                </mxCell>
                <mxCell id="label1" value="HTTP Request" style="text;html=1;strokeColor=none;fillColor=none;align=center;verticalAlign=middle;whiteSpace=wrap;rounded=0;" parent="1" vertex="1">
                    <mxGeometry x="160" y="40" width="80" height="20" as="geometry"/>
                </mxCell>
                <mxCell id="label3" value="Event Publishing" style="text;html=1;strokeColor=none;fillColor=none;align=center;verticalAlign=middle;whiteSpace=wrap;rounded=0;" parent="1" vertex="1">
                    <mxGeometry x="550" y="130" width="100" height="20" as="geometry"/>
                </mxCell>
                <mxCell id="label4" value="Background Processing" style="text;html=1;strokeColor=none;fillColor=none;align=center;verticalAlign=middle;whiteSpace=wrap;rounded=0;" parent="1" vertex="1">
                    <mxGeometry x="340" y="260" width="120" height="20" as="geometry"/>
                </mxCell>
                <mxCell id="label5" value="Event Consumption" style="text;html=1;strokeColor=none;fillColor=none;align=center;verticalAlign=middle;whiteSpace=wrap;rounded=0;" parent="1" vertex="1">
                    <mxGeometry x="550" y="330" width="100" height="20" as="geometry"/>
                </mxCell>
                <mxCell id="3" style="edgeStyle=none;html=1;entryX=0;entryY=0;entryDx=0;entryDy=52.5;entryPerimeter=0;" parent="1" source="outbox" target="kafka" edge="1">
                    <mxGeometry relative="1" as="geometry"/>
                </mxCell>
                <mxCell id="27" style="edgeStyle=none;html=1;entryX=0.5;entryY=0;entryDx=0;entryDy=0;" edge="1" parent="1" source="4" target="25">
                    <mxGeometry relative="1" as="geometry"/>
                </mxCell>
                <mxCell id="28" style="edgeStyle=none;html=1;entryX=0.5;entryY=0;entryDx=0;entryDy=0;" edge="1" parent="1" source="4" target="23">
                    <mxGeometry relative="1" as="geometry"/>
                </mxCell>
                <mxCell id="29" style="edgeStyle=none;html=1;entryX=0.5;entryY=0;entryDx=0;entryDy=0;" edge="1" parent="1" source="4" target="26">
                    <mxGeometry relative="1" as="geometry"/>
                </mxCell>
                <mxCell id="4" value="Worker Pool" style="whiteSpace=wrap;html=1;fillColor=#D5E8D4;strokeColor=#82B366;rounded=1;fontStyle=1;" vertex="1" parent="1">
                    <mxGeometry x="440" y="390" width="120" height="60" as="geometry"/>
                </mxCell>
                <mxCell id="9" value="" style="edgeStyle=none;html=1;" edge="1" parent="1" source="6" target="8">
                    <mxGeometry relative="1" as="geometry"/>
                </mxCell>
                <mxCell id="6" value="Kafka Producer" style="whiteSpace=wrap;html=1;fillColor=#FFF2CC;strokeColor=#D6B656;rounded=1;fontStyle=1;" vertex="1" parent="1">
                    <mxGeometry x="440" y="630" width="120" height="60" as="geometry"/>
                </mxCell>
                <mxCell id="46" style="edgeStyle=none;html=1;entryX=0.5;entryY=0;entryDx=0;entryDy=0;" edge="1" parent="1" source="8" target="42">
                    <mxGeometry relative="1" as="geometry"/>
                </mxCell>
                <mxCell id="8" value="Circuit Breaker" style="whiteSpace=wrap;html=1;fillColor=#E1D5E7;strokeColor=#9673A6;rounded=1;fontStyle=1;" vertex="1" parent="1">
                    <mxGeometry x="440" y="740" width="120" height="60" as="geometry"/>
                </mxCell>
                <mxCell id="19" style="edgeStyle=none;html=1;entryX=0.5;entryY=0;entryDx=0;entryDy=0;" edge="1" parent="1" source="10" target="15">
                    <mxGeometry relative="1" as="geometry"/>
                </mxCell>
                <mxCell id="10" value="Closed" style="whiteSpace=wrap;html=1;fillColor=#D5E8D4;strokeColor=#82B366;rounded=1;fontStyle=1;" vertex="1" parent="1">
                    <mxGeometry x="620" y="736.5" width="120" height="60" as="geometry"/>
                </mxCell>
                <mxCell id="22" style="edgeStyle=none;html=1;entryX=1;entryY=0.5;entryDx=0;entryDy=0;" edge="1" parent="1" source="12" target="10">
                    <mxGeometry relative="1" as="geometry">
                        <Array as="points">
                            <mxPoint x="780" y="946.5"/>
                            <mxPoint x="770" y="766.5"/>
                        </Array>
                    </mxGeometry>
                </mxCell>
                <mxCell id="12" value="Half Open" style="whiteSpace=wrap;html=1;fillColor=#FFE6CC;strokeColor=#D79B00;rounded=1;fontStyle=1;" vertex="1" parent="1">
                    <mxGeometry x="620" y="913.5" width="120" height="60" as="geometry"/>
                </mxCell>
                <mxCell id="20" style="edgeStyle=none;html=1;entryX=0.5;entryY=0;entryDx=0;entryDy=0;" edge="1" parent="1" source="15" target="12">
                    <mxGeometry relative="1" as="geometry"/>
                </mxCell>
                <mxCell id="15" value="Open" style="whiteSpace=wrap;html=1;fillColor=#F8CECC;strokeColor=#B85450;rounded=1;fontStyle=1;" vertex="1" parent="1">
                    <mxGeometry x="620" y="826.5" width="120" height="60" as="geometry"/>
                </mxCell>
                <mxCell id="17" value="Apache Kafka" style="whiteSpace=wrap;html=1;fillColor=#FFE6CC;strokeColor=#D79B00;rounded=1;fontStyle=1;" vertex="1" parent="1">
                    <mxGeometry x="440" y="960" width="120" height="60" as="geometry"/>
                </mxCell>
                <mxCell id="32" style="edgeStyle=none;html=1;entryX=0.5;entryY=0;entryDx=0;entryDy=0;" edge="1" parent="1" source="23" target="6">
                    <mxGeometry relative="1" as="geometry"/>
                </mxCell>
                <mxCell id="23" value="Worker" style="whiteSpace=wrap;html=1;fillColor=#DAE8FC;strokeColor=#6C8EBF;rounded=1;fontStyle=1;" vertex="1" parent="1">
                    <mxGeometry x="475" y="500" width="50" height="60" as="geometry"/>
                </mxCell>
                <mxCell id="34" style="edgeStyle=none;html=1;" edge="1" parent="1" source="25" target="6">
                    <mxGeometry relative="1" as="geometry"/>
                </mxCell>
                <mxCell id="25" value="Worker" style="whiteSpace=wrap;html=1;fillColor=#DAE8FC;strokeColor=#6C8EBF;rounded=1;fontStyle=1;" vertex="1" parent="1">
                    <mxGeometry x="400" y="500" width="50" height="60" as="geometry"/>
                </mxCell>
                <mxCell id="33" style="edgeStyle=none;html=1;" edge="1" parent="1" source="26" target="6">
                    <mxGeometry relative="1" as="geometry"/>
                </mxCell>
                <mxCell id="26" value="Worker" style="whiteSpace=wrap;html=1;fillColor=#DAE8FC;strokeColor=#6C8EBF;rounded=1;fontStyle=1;" vertex="1" parent="1">
                    <mxGeometry x="550" y="500" width="50" height="60" as="geometry"/>
                </mxCell>
                <mxCell id="41" style="edgeStyle=none;html=1;entryX=0.015;entryY=0.203;entryDx=0;entryDy=0;entryPerimeter=0;" edge="1" parent="1" source="8" target="40">
                    <mxGeometry relative="1" as="geometry"/>
                </mxCell>
                <mxCell id="44" style="edgeStyle=none;html=1;entryX=0.5;entryY=0;entryDx=0;entryDy=0;" edge="1" parent="1" source="42" target="17">
                    <mxGeometry relative="1" as="geometry"/>
                </mxCell>
                <mxCell id="47" value="YES" style="edgeLabel;html=1;align=center;verticalAlign=middle;resizable=0;points=[];fontStyle=1" connectable="0" vertex="1" parent="44">
                    <mxGeometry x="-0.1" y="3" relative="1" as="geometry">
                        <mxPoint as="offset"/>
                    </mxGeometry>
                </mxCell>
                <mxCell id="42" value="Closed?" style="rhombus;whiteSpace=wrap;html=1;fillColor=#f5f5f5;fontColor=#333333;strokeColor=#666666;" vertex="1" parent="1">
                    <mxGeometry x="460" y="840" width="80" height="80" as="geometry"/>
                </mxCell>
            </root>
        </mxGraphModel>
    </diagram>
</mxfile>